# xmcd CD database file
#
# Track frame offsets:
#	150
#	21227
#	41041
#	59764
#	91249
#	116389
#	144227
#	168362
#	190624
#	224748
#
# Disc length: 3503 seconds
#
# Revision: 0
# Processed by: cddbd v1.5.1PL2 Copyright (c) Steve Scherf et al.
# Submitted via: CDex 1.51
#
DISCID=8c0dad0a
DTITLE=Dokapi - Harmonic Waves
DYEAR=2006
DGENRE=New Age
TTITLE0=Silver Creek
TTITLE1=Sentimental Notes
TTITLE2=Peacock
TTITLE3=Savannah
TTITLE4=Open Your Heart
TTITLE5=Blue Nite
TTITLE6=The Streets Of Miami
TTITLE7=Yucca
TTITLE8=Trek To Makalu
TTITLE9=Space Odyssey
EXTD=YEAR: 2006
EXTT0=
EXTT1=
EXTT2=
EXTT3=
EXTT4=
EXTT5=
EXTT6=
EXTT7=
EXTT8=
EXTT9=
PLAYORDER=
